<svg xmlns="http://www.w3.org/2000/svg" height="512pt" version="1.1" viewBox="0 0 512.0003 512" width="512pt">
<g id="surface1">
<path d="M 467 271 C 475.285156 271 482 264.28125 482 256 L 482 211 L 497 211 C 503.453125 211 509.183594 206.871094 511.226562 200.746094 C 513.269531 194.625 511.167969 187.882812 506.007812 184.003906 L 265.007812 3.007812 C 259.671875 -1 252.328125 -1 246.992188 3.007812 L 5.992188 184.003906 C 0.832031 187.882812 -1.269531 194.625 0.773438 200.746094 C 2.816406 206.871094 8.546875 211 15 211 L 30 211 L 30 256 C 30 264.28125 36.71875 271 45 271 L 60 271 L 60 421 L 45 421 C 36.71875 421 30 427.714844 30 436 L 30 482 L 15 482 C 6.71875 482 0 488.714844 0 497 C 0 505.28125 6.71875 512 15 512 C 31.953125 512 480.085938 512 497 512 C 505.28125 512 512 505.28125 512 497 C 512 488.714844 505.28125 482 497 482 L 482 482 L 482 436 C 482 427.714844 475.285156 421 467 421 L 452 421 L 452 271 Z M 256 33.757812 L 452.050781 181 L 59.949219 181 Z M 452 211 L 452 241 L 60 241 L 60 211 Z M 301 421 L 301 271 L 361 271 L 361 421 Z M 151 421 L 151 271 L 211 271 L 211 421 Z M 241 271 L 271 271 L 271 421 L 241 421 Z M 90 271 L 121 271 L 121 421 L 90 421 Z M 60 482 L 60 451 C 100.355469 451 404.550781 451 452 451 L 452 482 Z M 422 421 L 391 421 L 391 271 L 422 271 Z M 422 421 " style=" stroke:none;fill-rule:nonzero;fill:rgb(0%,0%,0%);fill-opacity:1;" />
<path d="M 256 60 C 231.1875 60 211 80.1875 211 105 C 211 129.8125 231.1875 150 256 150 C 280.8125 150 301 129.8125 301 105 C 301 80.1875 280.8125 60 256 60 Z M 256 120 C 247.730469 120 241 113.269531 241 105 C 241 96.730469 247.730469 90 256 90 C 264.269531 90 271 96.730469 271 105 C 271 113.269531 264.269531 120 256 120 Z M 256 120 " style=" stroke:none;fill-rule:nonzero;fill:rgb(0%,0%,0%);fill-opacity:1;" />
</g>
</svg>